<?xml version="1.0" standalone="no"?>
<!DOCTYPE svg PUBLIC "-//W3C//DTD SVG 20010904//EN"
 "http://www.w3.org/TR/2001/REC-SVG-20010904/DTD/svg10.dtd">
<svg version="1.0" xmlns="http://www.w3.org/2000/svg"
 width="128.000000pt" height="128.000000pt" viewBox="0 0 128.000000 128.000000"
 preserveAspectRatio="xMidYMid meet">

<g transform="translate(0.000000,128.000000) scale(0.100000,-0.100000)"
fill="#000000" stroke="none">
<path d="M505 1160 c-281 -45 -397 -215 -382 -560 7 -139 21 -203 63 -280 77
-142 246 -209 499 -197 222 10 354 77 424 216 49 95 68 346 37 492 -38 175
-144 282 -316 318 -76 16 -253 22 -325 11z m285 -270 l0 -50 -49 0 c-55 0 -61
-7 -61 -71 l0 -39 56 0 55 0 -3 -52 -3 -53 -52 -3 -53 -3 0 -135 0 -134 -55 0
-55 0 0 135 0 135 -35 0 -35 0 0 55 0 55 35 0 35 0 0 61 c0 107 42 148 153
149 l67 0 0 -50z"/>
</g>
</svg>
