<?xml version="1.0" standalone="no"?>
<!DOCTYPE svg PUBLIC "-//W3C//DTD SVG 20010904//EN"
 "http://www.w3.org/TR/2001/REC-SVG-20010904/DTD/svg10.dtd">
<svg version="1.0" xmlns="http://www.w3.org/2000/svg"
 width="300.000000pt" height="87.000000pt" viewBox="0 0 300.000000 87.000000"
 preserveAspectRatio="xMidYMid meet">

<g transform="translate(0.000000,87.000000) scale(0.100000,-0.100000)"
fill="#000000" stroke="none">
<path d="M5 858 c-3 -7 -4 -202 -3 -433 l3 -420 1495 0 1495 0 0 430 0 430
-1493 3 c-1189 2 -1494 0 -1497 -10z m2925 -423 l0 -365 -1430 0 -1430 0 0
365 0 365 1430 0 1430 0 0 -365z"/>
<path d="M800 674 c-13 -32 -13 -44 0 -44 8 0 40 51 40 65 0 17 -32 1 -40 -21z"/>
<path d="M180 395 l0 -225 51 0 c43 0 50 3 47 17 -2 12 -14 19 -36 21 l-32 3
0 85 0 84 30 0 c39 0 41 27 3 32 l-28 3 0 85 0 85 30 0 c20 1 31 6 33 18 3 14
-5 17 -47 17 l-51 0 0 -225z"/>
<path d="M294 607 c-2 -7 -3 -107 -2 -222 l3 -210 50 0 c38 0 50 4 50 15 0 10
-12 16 -32 18 l-33 3 0 205 c0 176 -2 204 -15 204 -9 0 -18 -6 -21 -13z"/>
<path d="M480 395 l0 -225 39 0 c62 0 71 16 71 126 0 58 -4 94 -10 94 -7 0 -7
6 0 19 5 11 10 56 10 100 0 94 -11 111 -71 111 l-39 0 0 -225z m68 183 c12
-12 17 -124 6 -152 -3 -9 -15 -16 -25 -16 -17 0 -19 8 -19 83 0 96 8 115 38
85z m7 -283 c0 -75 -1 -80 -22 -83 -22 -3 -23 -1 -23 83 0 84 1 86 23 83 21
-3 22 -8 22 -83z"/>
<path d="M650 603 c0 -10 -9 -99 -20 -198 -24 -217 -24 -235 -6 -235 9 0 16
18 21 56 6 49 9 55 28 52 19 -3 22 -10 25 -55 2 -38 7 -53 18 -53 18 0 18 37
-1 250 -8 91 -15 173 -15 183 0 11 -8 17 -25 17 -17 0 -25 -6 -25 -17z m34
-191 c7 -97 6 -103 -11 -100 -12 3 -18 12 -17 28 3 58 16 181 19 178 1 -2 5
-49 9 -106z"/>
<path d="M750 411 c0 -227 3 -241 55 -241 52 0 55 14 55 241 0 179 -2 209 -15
209 -13 0 -15 -29 -15 -204 0 -206 -4 -231 -35 -206 -12 10 -15 49 -15 211 0
170 -2 199 -15 199 -13 0 -15 -30 -15 -209z"/>
<path d="M892 398 l3 -223 48 -3 c42 -3 47 -1 47 17 0 17 -6 21 -30 21 l-30 0
0 205 c0 199 -1 205 -20 205 -20 0 -20 -5 -18 -222z"/>
<path d="M1074 607 c-2 -7 -3 -107 -2 -222 l3 -210 35 -3 c19 -2 44 4 55 12
19 14 20 26 20 211 0 183 -1 198 -19 211 -25 17 -85 18 -92 1z m64 -25 c9 -7
12 -52 10 -193 -3 -166 -5 -184 -20 -187 -17 -3 -18 11 -18 192 0 108 3 196 8
196 4 0 13 -4 20 -8z"/>
<path d="M1214 607 c-2 -7 -3 -107 -2 -222 l3 -210 48 -3 c42 -3 47 -1 47 17
0 17 -6 21 -30 21 l-30 0 0 84 c0 84 0 85 27 88 39 4 42 28 4 28 l-31 0 0 91
0 91 30 -4 c24 -4 30 -1 30 14 0 15 -8 18 -45 18 -28 0 -48 -5 -51 -13z"/>
<path d="M1330 396 l0 -226 50 0 c43 0 50 3 50 20 0 16 -7 20 -30 20 l-30 0
-2 202 c-3 184 -5 203 -20 206 -17 3 -18 -13 -18 -222z"/>
<path d="M1512 398 l3 -223 48 -3 c42 -3 47 -1 47 17 0 17 -6 21 -30 21 l-30
0 0 205 c0 199 -1 205 -20 205 -20 0 -20 -5 -18 -222z"/>
<path d="M1630 395 c0 -218 1 -225 20 -225 19 0 20 7 20 225 0 218 -1 225 -20
225 -19 0 -20 -7 -20 -225z"/>
<path d="M1700 395 l0 -225 38 0 c64 0 77 17 76 102 -1 40 -2 130 -2 200 -1
142 -5 148 -76 148 l-36 0 0 -225z m69 181 c7 -9 11 -42 9 -88 -3 -67 -5 -73
-25 -76 -22 -3 -23 -1 -23 81 0 97 10 118 39 83z m9 -283 c3 -83 3 -83 -23
-83 -25 0 -25 1 -25 86 0 83 1 85 23 82 20 -3 22 -9 25 -85z"/>
<path d="M1842 398 c3 -190 5 -223 18 -223 12 0 16 19 18 103 1 56 7 102 11
102 5 0 15 -45 22 -101 8 -67 17 -103 26 -106 8 -3 16 -3 19 0 4 3 -2 51 -11
107 -13 78 -15 108 -6 127 6 13 11 56 11 96 0 92 -15 117 -71 117 l-39 0 2
-222z m72 150 c12 -47 -1 -128 -20 -128 -11 0 -14 18 -14 86 0 64 3 85 13 82
6 -3 16 -20 21 -40z"/>
<path d="M1997 602 c-15 -16 -17 -44 -17 -209 0 -171 2 -192 18 -206 23 -21
52 -22 78 -3 17 13 19 29 22 198 3 206 -3 231 -54 236 -20 2 -36 -4 -47 -16z
m63 -207 c0 -185 -5 -210 -35 -185 -12 10 -15 46 -15 184 0 173 5 201 36 189
11 -4 14 -42 14 -188z"/>
<path d="M2180 417 c0 -226 5 -247 60 -247 55 0 60 21 60 248 0 188 -1 203
-17 200 -16 -3 -18 -23 -23 -208 -4 -173 -7 -205 -20 -205 -13 0 -15 31 -18
208 -2 199 -3 207 -22 207 -19 0 -20 -7 -20 -203z"/>
<path d="M2336 604 c-28 -28 -21 -113 18 -197 41 -90 53 -163 33 -191 -20 -27
-37 -11 -37 35 0 28 -4 39 -15 39 -25 0 -21 -96 4 -110 96 -51 122 83 48 246
-39 85 -46 134 -24 153 20 16 37 -6 37 -46 0 -23 5 -33 15 -33 20 0 20 68 -1
98 -18 26 -56 29 -78 6z"/>
<path d="M2485 608 c-3 -11 -45 -410 -45 -430 0 -5 6 -8 14 -8 16 0 26 30 26
78 0 27 3 32 25 32 23 0 25 -3 25 -50 0 -36 4 -52 15 -57 9 -3 18 -4 20 -2 2
2 -5 103 -16 224 -10 121 -19 221 -19 223 -1 9 -41 0 -45 -10z m34 -250 c1
-39 -2 -46 -16 -44 -10 2 -17 6 -16 10 0 3 5 50 9 104 l8 97 7 -60 c4 -33 7
-81 8 -107z"/>
<path d="M2584 607 c-2 -7 -3 -107 -2 -222 l3 -210 24 -3 c82 -12 94 23 89
252 -3 152 -5 169 -22 182 -25 17 -85 18 -92 1z m64 -25 c9 -7 12 -52 10 -193
-3 -166 -5 -184 -20 -187 -17 -3 -18 11 -18 192 0 108 3 196 8 196 4 0 13 -4
20 -8z"/>
<path d="M2736 598 c-13 -18 -16 -56 -16 -203 0 -202 6 -225 60 -225 54 0 60
23 60 225 0 147 -3 185 -16 203 -20 30 -68 30 -88 0z m67 -48 c13 -49 5 -326
-10 -341 -27 -27 -33 4 -33 185 0 100 3 186 7 190 13 13 27 -1 36 -34z"/>
</g>
</svg>
